# xmcd
#
# Track frame offsets:
#	150
#	15916
#	31557
#	45645
#	62395
#	78544
#	91624
#	106256
#	121155
#	137903
#
# Disc length: 2018 seconds
#
# Revision: 1
# Processed by: cddbd v1.5.2PL0 Copyright (c) Steve Scherf et al.
# Submitted via: audiograbber 1.83.01
#
DISCID=6607e00a
DTITLE=Various Artist - CDX Volume 581 (October 14, 2013)
DYEAR=2013
DGENRE=Country
TTITLE0=LoCash Cowboys - Best Seat In The House
TTITLE1=Sheryl Crow - Callin' Me When I'm Lonely
TTITLE2=Lady Antebellum - Compass 
TTITLE3=Taylor Made - Somewhere Between
TTITLE4=Brian Greenwood - All You've Got Left Is A Song
TTITLE5=Mike Aiken - Dance With The Wind 
TTITLE6=Sean Patrick McGraw - I'm That Guy 
TTITLE7=Stickers - Separate Lives
TTITLE8=David Carter - Sunday Morning Girl
TTITLE9=Caitlin - Up
EXTD=
EXTT0=
EXTT1=
EXTT2=
EXTT3=
EXTT4=
EXTT5=
EXTT6=
EXTT7=
EXTT8=
EXTT9=
PLAYORDER=
